<svg width="800" height="400" viewBox="0 0 800 400" fill="none" xmlns="http://www.w3.org/2000/svg">
  <defs>
    <linearGradient id="bg" x1="0" y1="0" x2="800" y2="400">
      <stop offset="0%" stop-color="#111" />
      <stop offset="50%" stop-color="#06b6d411" />
      <stop offset="100%" stop-color="#111" />
    </linearGradient>
    <linearGradient id="accent" x1="0" y1="0" x2="100" y2="100">
      <stop offset="0%" stop-color="#06b6d4" />
      <stop offset="100%" stop-color="#06b6d488" />
    </linearGradient>
    <linearGradient id="glow" x1="400" y1="400" x2="400" y2="0">
      <stop offset="0%" stop-color="#06b6d400" />
      <stop offset="60%" stop-color="#06b6d408" />
      <stop offset="100%" stop-color="#06b6d400" />
    </linearGradient>
  </defs>
  <rect width="800" height="400" fill="url(#bg)" rx="8" />
  <ellipse cx="400" cy="350" rx="300" ry="120" fill="url(#glow)" />
  <rect x="0" y="0" width="800" height="3" fill="url(#accent)" />
  <circle cx="120" cy="80" r="2.5" fill="#06b6d444" />
  <circle cx="680" cy="60" r="2" fill="#06b6d444" />
  <circle cx="200" cy="360" r="3" fill="#06b6d433" />
  <circle cx="620" cy="340" r="2" fill="#06b6d433" />
  <line x1="80" y1="100" x2="80" y2="300" stroke="#06b6d408" stroke-width="1" />
  <line x1="260" y1="100" x2="260" y2="300" stroke="#06b6d408" stroke-width="1" />
  <line x1="540" y1="100" x2="540" y2="300" stroke="#06b6d408" stroke-width="1" />
  <line x1="720" y1="100" x2="720" y2="300" stroke="#06b6d408" stroke-width="1" />
  <line x1="80" y1="160" x2="720" y2="160" stroke="#06b6d408" stroke-width="1" />
  <line x1="80" y1="240" x2="720" y2="240" stroke="#06b6d408" stroke-width="1" />
  <circle cx="400" cy="170" r="72" fill="#06b6d415" stroke="#06b6d4" stroke-width="2" />
  <circle cx="400" cy="170" r="60" fill="#06b6d408" />
  <text x="400" y="192" font-family="system-ui,sans-serif" font-size="64" fill="#06b6d4" text-anchor="middle" dominant-baseline="middle" opacity="0.85">LT</text>
  <text x="400" y="288" font-family="system-ui,-apple-system,sans-serif" font-size="32" font-weight="700" fill="#eee" text-anchor="middle" letter-spacing="-0.3" opacity="0.95">Utilitybelt</text>
  <rect x="360" y="306" width="80" height="2" rx="1" fill="#06b6d466" />
  <rect x="350" y="322" width="100" height="26" rx="13" fill="#06b6d418" stroke="#06b6d444" stroke-width="0.5" />
  <text x="400" y="339" font-family="system-ui,sans-serif" font-size="12" fill="#06b6d4bb" text-anchor="middle" dominant-baseline="middle" font-weight="500">Toolkit</text>
</svg>